<?xml version="1.0" encoding="UTF-8" standalone="no"?>
<svg width="538px" height="494px" viewBox="0 0 538 494" version="1.1" xmlns="http://www.w3.org/2000/svg" xmlns:xlink="http://www.w3.org/1999/xlink" xmlns:sketch="http://www.bohemiancoding.com/sketch/ns">
    <!-- Generator: Sketch 3.0.4 (8053) - http://www.bohemiancoding.com/sketch -->
    <title>smr-driift</title>
    <desc>Created with Sketch.</desc>
    <defs></defs>
    <g id="Page-1" stroke="none" stroke-width="1" fill="none" fill-rule="evenodd" sketch:type="MSPage">
        <g id="smr-driift" sketch:type="MSArtboardGroup">
            <g id="smr_morris_right-23fdb2adecc4665e7a89d8970be413da" sketch:type="MSLayerGroup" transform="translate(6.000000, 11.000000)">
                <g id="Group" fill="#FFFFFF" sketch:type="MSShapeGroup">
                    <g id="Shape">
                        <path d="M183.8,479 C172.3,479 159.4,470.8 150.2,458 C144.1,449.5 140.4,439.8 140,431 C139.5,421.1 142.9,413 149.6,408.2 C150.8,407.3 152.2,406.4 153.9,405.6 C158.9,403 166.6,400 175.3,400 C184.5,400 192.7,403.1 199.7,409.2 L209.4,398.4 L194.3,371.1 L63.7,318.6 C55.9,315.5 51.9,308 53.9,300 L76.9,208.9 L49.7,208.9 C42.1,208.9 35.3,202.7 33.9,194.9 L25.7,147.4 C23.7,146.6 21.8,145.6 20,144.4 C13.6,140.3 9.3,133.8 7.6,125.6 C2.6,102 21.1,89 34.8,86 C36.5,85.6 43.6,83.9 51.8,83.9 C61.9,83.9 69.6,86.4 74.7,91.5 C84.9,101.5 83.7,113 79.3,120.4 C78.1,122.3 76.4,124.1 74.7,125.5 C74.8,129.3 73.8,132.9 71.6,136.2 C68.1,141.5 62.4,145.1 58.1,147 L63.3,177.1 L85,177.1 L108,84.8 C109.1,80.3 111.9,76.4 115.7,74.2 L177.6,38 L183,18.9 C185,11.8 191.5,6.9 198.9,6.9 C199.3,6.9 199.8,6.9 200.5,7 L435.9,29.4 C441,29.9 445.5,32.6 448.3,37 C451.1,41.3 451.6,46.6 449.9,51.4 L441,75.6 L452.2,175.5 C452.4,177.4 452.3,179.2 451.9,181 L448.8,194.7 L454.9,192.1 C456.9,191.2 459,190.8 461.2,190.8 C463.3,190.8 465.3,191.2 467.2,192 C471.1,193.6 474.3,196.8 476,200.7 L495.1,246.8 C497.9,247 500.5,247.7 503.1,248.8 C511,252.3 516.9,259.8 520.7,271 C525.3,284.7 520.5,298.9 509,305.6 C493.4,314.6 478.2,315.1 475.3,315.1 L475.2,315.1 L474.4,315.1 C466.2,315.1 450.9,310.3 445.8,292.2 C445.7,291.8 445.6,291.4 445.5,290.9 C444.2,281.7 447.2,276.5 450,273.7 C450.8,272.9 451.7,272.2 452.7,271.5 C453.8,265.7 456.8,262.1 458.7,260.3 C460,258.6 461.8,257 464.1,255.5 L452.7,228 L440,233.5 L406.7,379.2 C405,386.8 398.4,392 390.6,392 C390.1,392 389.5,392 389,391.9 L269.1,380 L214,440.9 C214,456.4 204.3,466.6 201.6,469.1 C200.5,470.7 199,472.9 197,474.3 C193.1,477.2 188.5,479 183.8,479 L183.8,479 L183.8,479 Z"></path>
                        <path d="M198.8,13 C199.1,13 199.4,13.2 199.7,13.2 L435.1,35.6 C438.2,35.9 440.9,37.6 442.6,40.2 C444.3,42.8 444.6,46 443.6,48.9 L434.4,74.7 L445.8,176.1 C445.9,177.2 445.9,178.3 445.6,179.4 L439.6,205.6 L457.4,197.9 C458.6,197.4 459.9,197.1 461.2,197.1 C462.4,197.1 463.6,197.3 464.8,197.8 C467.2,198.8 469,200.6 470,203 L490.8,253.3 C491.6,253.2 492.4,253.1 493.4,253.1 C495.4,253.1 497.9,253.5 500.4,254.6 C506.5,257.3 511.3,263.5 514.4,272.9 C518,283.6 514.4,294.7 505.6,299.7 C491.3,307.9 477.5,308.3 475.1,308.3 L474.9,308.3 L474.2,308.3 C467.8,308.3 455.9,304.6 451.9,290.1 C451.9,290 451.8,289.8 451.8,289.7 C451.1,284.4 452,280.5 454.5,277.9 C455.8,276.6 457.3,275.9 458.6,275.6 C458.7,269 461.9,265.6 463.4,264.4 C465,261.9 468.4,259.9 472.2,258.3 L456,219.1 L434.2,228.5 L400.2,377.4 C399.2,382 395.1,385.2 390.5,385.2 L389.5,385.2 L266.4,372.9 L207.4,438.4 C208.6,454.3 197.2,464.3 197,464.4 L196.9,464.5 C196.9,464.5 196.8,464.5 196.8,464.6 C195.8,466 194.6,467.7 193.3,468.7 C190.6,470.6 187.4,471.9 183.8,471.9 L183.8,471.9 C174.4,471.9 163.2,464.7 155.5,453.9 C144.3,438.4 143.4,420.5 153.4,413.3 C154.4,412.6 155.5,411.9 156.6,411.4 C160.7,409.3 167.5,406.4 175.2,406.4 C184.5,406.4 192.6,410.3 199.2,418 C199.3,418.1 199.3,418.1 199.4,418.2 C199.5,418.4 199.6,418.5 199.7,418.7 L243,370.7 L222,368.6 L228.6,380.6 L215.1,395.5 L198.8,366 L198.8,366 L66.1,312.6 C61.5,310.7 58.9,306.2 60.1,301.4 L85.2,202 L49.7,202 C45.1,202 41.1,198.2 40.3,193.6 L31.4,142.4 C28.7,141.7 26,140.6 23.5,139 C18.5,135.8 15.3,130.8 14,124.4 C9.7,103.7 26.6,94.4 36.3,92.3 C37.2,92.1 44.1,90.4 51.8,90.4 C58.4,90.4 65.6,91.6 70.1,96.1 C79.5,105.4 75.2,114.5 73.7,117 C72.7,118.7 70.4,120.7 67.5,122.5 C67.6,122.7 67.7,123 67.8,123.3 C68.5,126.6 68,129.7 66.1,132.5 C62.4,138.1 54.6,141.3 50.7,142.3 L57.7,182.9 L90,182.9 L114.2,86 C114.9,83.4 116.5,80.9 118.9,79.5 L183,42.2 L189.2,20.5 C190.4,16.1 194.4,13 198.8,13 L199,13 L198.8,13 Z M176.7,16.9 L172,33.5 L112.3,68.3 C107,71.4 103.1,76.7 101.6,82.9 L79.8,170 L68.6,170 L65.2,150.3 C69.4,147.9 73.8,144.5 76.9,139.7 C79.2,136.2 80.6,132.4 80.9,128.4 C82.3,127 83.6,125.4 84.7,123.7 C90.2,114.6 92,99.5 79.1,86.8 C72.7,80.5 63.5,77.4 51.7,77.4 C43,77.4 35.3,79.2 33.3,79.7 C29,80.6 18.8,83.7 10.5,92.5 C1.8,101.7 -1.4,114 1.3,127.1 C3.4,136.9 8.6,144.9 16.5,150 C17.6,150.7 18.7,151.4 19.9,152 L27.5,196 C29.4,206.9 38.9,215.1 49.7,215.1 L68.5,215.1 L47.5,298.3 C44.7,309.3 50.5,320.4 61.2,324.7 L189.6,376.3 L201.3,397.5 L198.6,400.4 C191.6,395.8 183.6,393.5 175.1,393.5 C165.2,393.5 156.6,396.8 150.9,399.7 C148.7,400.7 146.9,401.9 145.6,402.8 C137.2,408.9 132.7,419.2 133.3,431.2 C133.8,441.2 137.9,452 144.8,461.5 C155.2,476 170.1,484.9 183.7,484.9 C189.8,484.9 195.7,483 200.8,479.3 C203.3,477.5 205.1,475.3 206.4,473.5 C211.2,469.1 219.5,458.2 220.4,443.4 L271.7,386.5 L388.3,398.1 C389.1,398.2 389.8,398.2 390.6,398.2 C401.4,398.2 410.6,390.8 413,380.3 L445.6,238 L449.2,236.4 L456.2,253.3 C455.4,254.1 454.6,254.9 453.9,255.8 C450.6,258.9 448.3,263 447,267.6 C446.5,268 445.9,268.5 445.4,269 C441.6,272.8 437.5,279.9 439.1,291.7 C439.2,292.4 439.3,293.1 439.5,293.8 C444.9,312.9 460.9,321.3 474.3,321.3 C479.7,321.1 495.5,320.6 512.2,311 C526.4,302.8 532.4,285.6 526.8,268.9 C522.4,255.9 515.3,247.2 505.7,242.9 C503.7,242 501.7,241.4 499.7,241 L482,198.1 C479.7,192.6 475.2,188.1 469.7,185.9 C467,184.8 464.2,184.3 461.2,184.3 C460,184.3 458.9,184.4 457.8,184.6 L458.3,182.5 C458.9,180 459,177.4 458.7,174.8 L447.7,76.4 L455.9,53.4 C458.3,46.7 457.5,39.4 453.6,33.3 C449.8,27.3 443.5,23.4 436.4,22.8 L201,0.3 C200,0.2 199.3,0 198.8,0 C188.6,0 179.5,7 176.7,16.9 Z"></path>
                    </g>
                    <g transform="translate(213.000000, 366.000000)" id="Shape">
                        <path d="M81.4,84.1 C74.5,84.1 68.2,81.8 63.1,77.5 C57.8,72.9 54.1,65.8 51.8,59.7 L31.8,67.8 C29.9,68.6 27.8,69 25.8,69 C20,69 14.6,65.8 11.8,60.7 L7.9,53.7 L30.6,28.6 L32.9,32.8 L47.5,26.9 C50.8,12.2 63.4,7.3 70.3,6.8 C71.5,6.7 72.6,6.6 73.8,6.6 C84.2,6.6 98.2,11.8 106,36.6 C108.9,45.8 109.4,55.4 107.4,63.5 C105,73.1 99.4,79.8 91.6,82.4 C91,82.6 90,83 88.6,83.3 C86.3,83.8 83.8,84.1 81.4,84.1 L81.4,84.1 Z"></path>
                        <path d="M73.9,13.1 C85.8,13.1 94.6,21.7 99.9,38.6 C102.4,46.7 102.9,55 101.2,62 C99.4,69.4 95.2,74.5 89.6,76.3 C89.3,76.4 88.4,76.7 87.2,77 C85.3,77.4 83.4,77.7 81.5,77.7 C76.2,77.7 71.3,75.9 67.5,72.6 C62.3,68.2 58.4,59.7 56,51.1 L29.6,61.9 C28.4,62.4 27.2,62.6 26,62.6 C22.6,62.6 19.4,60.8 17.7,57.7 L16.1,54.7 L29.6,39.8 L30.3,41.1 L53.6,31.6 C54.9,18 65.5,13.7 71.1,13.4 C72,13.2 72.9,13.1 73.9,13.1 L73.9,13.1 Z M73.9,0.1 C72.6,0.1 71.2,0.2 69.9,0.3 C59,1.1 46.9,8.3 42.3,22 L36,24.6 L32,17.4 L19.8,31 L6.3,45.9 L0.1,52.8 L4.6,60.9 L6.2,63.9 C10.2,71.1 17.7,75.5 25.9,75.5 C28.8,75.5 31.7,74.9 34.4,73.8 L48.5,68.1 C51.1,73.4 54.5,78.5 59,82.4 C65.3,87.8 73,90.6 81.5,90.6 C84.4,90.6 87.3,90.3 90.2,89.6 C91.8,89.2 93,88.8 93.9,88.5 C103.7,85.3 111,76.7 113.9,65.1 C116.2,55.9 115.7,45.1 112.4,34.7 C109.1,24.2 104.5,16 98.6,10.2 C91.7,3.6 83.2,0.1 73.9,0.1 L73.9,0.1 L73.9,0.1 Z"></path>
                    </g>
                </g>
                <g id="Group" transform="translate(60.000000, 13.000000)" sketch:type="MSShapeGroup">
                    <path d="M330.6,367.4 L330.1,367.4 L142,348.6 C141.5,348.6 141.1,348.4 140.6,348.3 L8,295 C5.7,294.1 4.4,291.6 5,289.1 L59,73.8 C59.3,72.5 60.2,71.4 61.3,70.7 L127.2,32.4 L133.9,9 C134.5,6.8 136.5,5.4 138.7,5.4 L139.2,5.4 L374.6,27.8 C376.1,27.9 377.5,28.8 378.3,30.1 C379.1,31.4 379.3,33 378.8,34.5 L369.2,61.4 L380.7,163.9 C380.8,164.5 380.7,165 380.6,165.6 L335.4,363.6 C334.9,365.8 332.9,367.4 330.6,367.4 L330.6,367.4 Z" id="Shape" fill="#FFFFFF"></path>
                    <path d="M138.8,10.3 L374.2,32.7 L364.2,60.7 L375.8,164.4 L330.6,362.4 L142.5,343.7 L9.8,290.3 L63.8,75 L131.5,35.7 L138.8,10.3 L138.8,10.3 Z M129.2,7.5 L123,29 L58.8,66.3 C56.5,67.7 54.8,69.9 54.1,72.5 L0.1,287.8 C-1.1,292.6 1.4,297.6 6.1,299.5 L138.8,352.8 C139.7,353.2 140.6,353.4 141.5,353.5 L329.6,372.2 C335.2,372.2 339.3,369 340.3,364.4 L385.5,166.4 C385.8,165.3 385.8,164.2 385.7,163.1 L374.4,61.8 L383.6,36 C384.6,33.1 384.3,29.9 382.6,27.3 C380.9,24.7 378.2,23 375.1,22.7 L139.7,0.3 C139.4,0.3 130.4,3.2 129.2,7.5 Z" id="Shape" fill="#000000"></path>
                </g>
                <path d="M94,191.5 L49.7,191.5 L39.4,133.3" id="Shape" stroke="#000000" stroke-width="19" sketch:type="MSShapeGroup"></path>
                <path d="M435.8,205 L348.8,143.9 L119.6,117.7 L123.8,89 L354.2,113.7 L424.2,74.7 L438.2,173.6 L435.8,205 Z" id="Shape" fill="#A9E6FF" sketch:type="MSShapeGroup"></path>
                <path d="M126.8,88 L72.8,303.3 L205.5,356.7 L393.6,375.4 L438.8,177.3" id="Shape" stroke="#000000" stroke-width="6" sketch:type="MSShapeGroup"></path>
                <path d="M354.2,112.7 L424.2,73.7 L438.8,177.3 L393.6,375.4 L306.1,329.5 L72.8,303.3 L304.2,328" id="Shape" stroke="#000000" stroke-width="6" sketch:type="MSShapeGroup"></path>
                <path d="M191.5,48.7 L126.8,88" id="Shape" stroke="#000000" stroke-width="6" fill="#FFFFFF" sketch:type="MSShapeGroup"></path>
                <path d="M191.5,48.7 L198.8,23.3 L434.2,45.7 L424.2,73.7" id="Shape" stroke="#000000" stroke-width="6" sketch:type="MSShapeGroup"></path>
                <path d="M383.3,240.3 L461.2,206.8 L483.4,260.3" id="Shape" stroke="#000000" stroke-width="19" sketch:type="MSShapeGroup"></path>
                <path d="M77.0309004,303.3 C77.0309004,303.3 67.2251908,306.08763 70.4514707,307.345631 C112.703258,323.82057 197.206832,356.77045 197.206832,356.77045 L379.371106,373.562497 L303.722155,329.672923 L77.0309004,303.3 Z" id="Shape" stroke="#000000" stroke-width="6" fill="#D9D9D9" sketch:type="MSShapeGroup"></path>
                <g id="Group" transform="translate(87.000000, 101.000000)" sketch:type="MSShapeGroup">
                    <path d="M0.2,194.2 L195.8,216.5 L242.9,20.2 L45.8,-0.1 L0.2,194.2 Z" id="Shape"></path>
                    <g transform="translate(43.000000, 114.000000)" id="Shape">
                        <path d="M40.5,47.6 C41.2,47.3 42,47.3 42.6,47.8 C48,52.5 56,55.7 65.1,56.7 C74.2,57.7 83.3,56.5 90.6,53.2 C91.3,52.9 92.1,53 92.7,53.4 C93.2,53.9 93.4,54.7 93.1,55.4 C87.8,68.3 74.2,76.6 60.8,75.1 C47.4,73.6 38.4,62.8 39.4,49.4 C39.3,48.7 39.8,48 40.5,47.6 L40.5,47.6 Z" fill="#030303"></path>
                        <g fill="#050505">
                            <path d="M127.2,11.7 C134.4,12.5 140.5,16 144.4,21.6 C145.9,23.7 145.1,26.9 142.7,28.6 C140.3,30.3 137.1,30 135.7,27.8 C133.3,24.3 129.4,22.1 124.9,21.6 C120.4,21.1 115.7,22.4 111.8,25.2 C110.6,26.1 109.2,26.4 107.9,26.3 C106.6,26.2 105.5,25.5 104.7,24.5 C103.2,22.4 104,19.2 106.4,17.5 C112.6,12.9 120,10.9 127.2,11.7 L127.2,11.7 Z"></path>
                            <path d="M2,6 C8.2,1.5 15.5,-0.5 22.6,0.3 C29.7,1.1 35.7,4.6 39.6,10.1 C41.1,12.2 40.3,15.3 38,17 C35.6,18.7 32.5,18.4 31,16.2 C28.6,12.7 24.8,10.5 20.3,10 C15.8,9.5 11.2,10.8 7.3,13.6 C6.1,14.5 4.7,14.8 3.5,14.7 C2.2,14.6 1.1,13.9 0.4,12.9 C-1.1,10.8 -0.4,7.7 2,6 L2,6 Z"></path>
                        </g>
                    </g>
                </g>
                <path d="M301.5,439.4 C311.1,436.4 314.9,421.2 310,405.5 C305.2,390.1 297.3,380.8 284.3,382.3 C284.3,382.3 270.4,383.2 269.4,398.8 C268.8,408.2 273.7,428.9 282.4,436.3 C288.7,441.7 296,440.9 299.5,440.1 C300.8,439.7 301.5,439.4 301.5,439.4 L301.5,439.4 Z" id="Shape" stroke="#000000" stroke-width="6" fill="#A9E6FF" sketch:type="MSShapeGroup"></path>
                <path d="M277.4,346.8 L184.9,449.4" id="Shape" stroke="#000000" stroke-width="19" sketch:type="MSShapeGroup"></path>
                <path d="M286.2,355.5 C287.8,351.7 285,346.4 279.1,342.9 C273.2,339.4 266.7,339.4 264.6,342.8 L274.3,330.9 L292.3,346.5 L286.2,355.5 L286.2,355.5 Z" id="Shape" fill="#D9D9D9" sketch:type="MSShapeGroup"></path>
                <path d="M194.9,462.5 C194.9,462.5 195,462.4 195.1,462.3 L195.2,462.2 C197.7,460.2 213.7,443.4 196.9,420 C178.7,398.8 154.3,416.2 154.3,416.2 L194.9,462.5 L194.9,462.5 Z" id="Shape" stroke="#000000" stroke-width="6" fill="#A9E6FF" sketch:type="MSShapeGroup"></path>
                <ellipse id="Oval" stroke="#000000" stroke-width="6.00003063" fill="#FFFFFF" sketch:type="MSShapeGroup" transform="translate(173.120600, 441.161600) rotate(-35.767464) translate(-173.120600, -441.161600) " cx="173.1206" cy="441.361601" rx="19.000097" ry="31.2001593"></ellipse>
                <path d="M64.8,124 C67.4,135.8 47.6,139.5 47.6,139.5 C47.6,139.5 21.4,145.3 16.8,123.7 C11.9,100.4 36.8,95.2 36.8,95.2 C36.8,95.2 58.9,89.4 67.8,98.2 C75.5,105.8 72.4,113 70.9,115.4 C69.4,117.8 63.3,122.2 57.3,123.4 C51.3,124.6 33.4,126.3 32.1,119 C32.1,119 31.1,113.9 34.3,113.5" id="Shape" stroke="#000000" stroke-width="6" fill="#FFFFFF" sketch:type="MSShapeGroup"></path>
                <path d="M461.7,278.5 C461.7,278.5 453.2,277.4 454.9,289.5 C459.6,306.2 474.9,305.5 474.9,305.5 C474.9,305.5 489.4,305.8 504.2,297.3 C511.6,293.1 514.9,283.8 511.6,274.1 C503.7,250.7 488.7,257.1 488.7,257.1 C488.7,257.1 468.7,260.7 465.8,266.7 C465.8,266.7 457.9,271.4 464,286.4 C464,286.4 466.1,292.8 471.4,294.1" id="Shape" stroke="#000000" stroke-width="6" fill="#FFFFFF" sketch:type="MSShapeGroup"></path>
                <g id="Group" transform="translate(184.000000, 327.000000)" fill="#000000" sketch:type="MSShapeGroup">
                    <path d="M1,13.9 C-1.5,9.3 0.1,3.5 4.7,1 C9.3,-1.5 15.1,0.1 17.6,4.7 L44.6,53.6 L31.1,68.5 L1,13.9 L1,13.9 Z" id="Shape"></path>
                    <path d="M59.2,80 L94.4,65.7 C99.3,63.7 104.8,66.1 106.8,70.9 C108.8,75.8 106.4,81.3 101.6,83.3 L58.6,100.8 C57.4,101.3 56.2,101.5 55,101.5 C51.6,101.5 48.4,99.7 46.7,96.6 L45.1,93.6 L58.6,78.7 L59.2,80 L59.2,80 Z" id="Shape"></path>
                </g>
                <path d="M206.2,338.8 C204.9,334.5 199.3,332 192.5,333.2 C185.7,334.4 180.8,338.8 181.5,343.1 L180.3,325.5 L205.5,328.1 L206.2,338.8 L206.2,338.8 Z" id="Shape" fill="#D9D9D9" sketch:type="MSShapeGroup"></path>
                <path d="M438.6,175.5 L354.2,112.7" id="Shape" stroke="#000000" stroke-width="6" sketch:type="MSShapeGroup"></path>
                <path d="M305.5,328.2 L354.2,112.7" id="Shape" stroke="#000000" stroke-width="6" sketch:type="MSShapeGroup"></path>
                <path d="M126.3,90 L354.2,112.7" id="Shape" stroke="#000000" stroke-width="6" fill="#FFFFFF" sketch:type="MSShapeGroup"></path>
                <path d="M387.6,70.7 L365.5,68.1" id="Shape" stroke="#000000" stroke-width="6" fill="#FFFFFF" sketch:type="MSShapeGroup"></path>
                <path d="M346.5,65.8 L191.5,48.7" id="Shape" stroke="#000000" stroke-width="6" fill="#FFFFFF" sketch:type="MSShapeGroup"></path>
            </g>
            <path d="M104.792969,192.660156 C101.030725,244.262853 104.792969,311.941406 164.605469,351.804688 C233.266425,397.565206 422.324215,282.941406 437.539059,229.015625" id="Path" stroke="#000000" stroke-width="10" sketch:type="MSShapeGroup"></path>
            <path d="M169,361.997472 L169,401.002528 C169,405.41941 172.584632,409.26229 177.002543,409.585552 L201.997457,411.414448 C206.417139,411.737839 210,408.02115 210,403.130076 L210,359.869924 C210,354.9712 206.415368,351.26229 201.997457,351.585552 L177.002543,353.414448 C172.582861,353.737839 169,357.587488 169,361.997472 Z" id="Rectangle-3" stroke="#000000" stroke-width="5" fill="#A9E6FF" sketch:type="MSShapeGroup"></path>
            <g id="DRIIFT-Logo" sketch:type="MSLayerGroup" transform="translate(179.000000, 372.000000)" fill="#FF3A53">
                <path d="M19,4.25 L19,16.75 L9.5,22 L2.85634146,17.5240387 L9.7379283,4.91227007 L8.0058775,3.92040607 L1.10555106,16.4259208 L6.13845378e-15,15.75 L0,5.25 L9.5,-1 L15.4361327,2.16328891 L8.3839746,15.9150356 L10.1160254,17.1031855 L17.1869231,3.17082325 L19,4.25 Z" id="Polygon-4" sketch:type="MSShapeGroup"></path>
            </g>
        </g>
    </g>
</svg>